<?xml version="1.0" encoding="UTF-8"?>
<!-- Created with Inkscape (http://www.inkscape.org/) -->
<svg width="274.96mm" height="52mm" version="1.1" viewBox="0 0 274.96 52" xmlns="http://www.w3.org/2000/svg">
 <g transform="translate(-10.197 -88.822)">
  <g fill="#090909" stroke-width=".26458" aria-label="SIMWIKI">
   <path d="m65.947 128q-5.4483 0-8.4963-2.4384-3.0099-2.4765-3.0099-6.8961h8.8011q0 1.2954 0.6858 1.9812t1.9812 0.6858q1.1049 0 1.7145-0.4191 0.6096-0.4572 0.6096-1.2573 0-0.9906-1.0668-1.6002-1.0287-0.6477-3.3147-1.0287-4.7244-0.8001-6.9723-2.8575-2.2479-2.0574-2.2479-5.5626 0-3.9243 2.8575-6.1722 2.8956-2.2479 7.9248-2.2479 3.429 0 5.9436 1.1049 2.5527 1.1049 3.9243 3.2004 1.4097 2.0574 1.4478 4.8387h-8.6106q0-1.2573-0.6858-1.905-0.6477-0.6858-1.8669-0.6858-1.0668 0-1.6764 0.4572t-0.6096 1.2192q0 0.9144 0.9525 1.4859 0.9906 0.5715 3.3909 1.0287 4.9911 0.9525 7.2771 2.9718 2.3241 2.0193 2.3241 5.4483 0 4.0767-2.9718 6.3627t-8.3058 2.286z"/>
   <path d="m80.73 100.76h9.2202v26.67h-9.2202z"/>
   <path d="m94.713 100.76h7.4676l8.3058 11.201 8.3439-11.201h7.4295v26.67h-8.9916v-6.1341l0.0762-5.4864h-0.1143l-4.191 5.7531h-5.1054l-4.191-5.7912-0.1143 0.0381 0.0762 5.4864v6.1341h-8.9916z"/>
   <path d="m128.77 100.76h9.7536l1.524 5.7912 2.0955 7.2009h0.1524l2.0955-7.2009 1.5621-5.7912h9.1059l1.5621 5.7912 2.1336 7.3533h0.1524l2.1336-7.3533 1.524-5.7912h9.6774l-8.2296 26.67h-9.6012l-1.6764-5.8674-2.1717-7.3533h-0.1143l-2.1717 7.3533-1.6383 5.8674h-9.6393z"/>
   <path d="m174.76 100.76h9.2202v26.67h-9.2202z"/>
   <path d="m188.74 100.76h9.2202v8.9535h0.8001q1.7145 0 2.4003-0.4953 0.7239-0.4953 1.2192-1.9812l2.1717-6.477h9.906l-3.8481 10.287q-0.8382 2.1336-1.7907 3.4671l6.5532 12.916h-10.516l-4.4196-9.4869h-2.4765v9.4869h-9.2202z"/>
   <path d="m218.5 100.76h9.2202v26.67h-9.2202z"/>
  </g>
  <g fill="#090909" stroke-width=".26458" aria-label=".ORG">
   <path d="m233.38 127.67q-1.0096 0-1.6574-0.6096-0.62865-0.6096-0.62865-1.5621 0-0.97155 0.62865-1.5812 0.6477-0.6096 1.6574-0.6096t1.6383 0.6096 0.62865 1.5812q0 0.9525-0.6477 1.5621-0.62865 0.6096-1.6192 0.6096z"/>
   <path d="m243.4 127.71q-2.1526 0-3.829-0.8763-1.6764-0.89535-2.6098-2.4765t-0.93345-3.6004 0.93345-3.6004 2.6098-2.4574q1.6764-0.89535 3.829-0.89535 2.1717 0 3.8481 0.89535 1.6764 0.8763 2.6098 2.4574t0.93345 3.6004-0.93345 3.6004-2.6098 2.4765q-1.6764 0.8763-3.8481 0.8763zm-2.7242-6.9532q0 1.2192 0.762 2.0002 0.762 0.762 1.9622 0.762t1.9622-0.762q0.78105-0.78105 0.78105-2.0002t-0.78105-1.9812q-0.762-0.78105-1.9622-0.78105t-1.9622 0.78105q-0.762 0.762-0.762 1.9812z"/>
   <path d="m252.49 114.09h6.5913q1.6764 0 2.8956 0.59055 1.2382 0.59055 1.886 1.6954 0.66675 1.1049 0.66675 2.6098 0 1.3144-0.51435 2.3432-0.4953 1.0096-1.4478 1.6383l2.2288 4.4577h-5.0673l-1.5812-3.5433h-1.0858v3.5433h-4.572zm5.8484 6.4008q0.762 0 1.162-0.36195 0.4191-0.381 0.4191-1.0668 0-0.70485-0.4191-1.0668-0.40005-0.36195-1.162-0.36195h-1.3526v2.8575z"/>
   <path d="m272.95 127.71q-2.1336 0-3.7719-0.8763t-2.5527-2.4574q-0.89535-1.5812-0.89535-3.6195t0.89535-3.6195q0.9144-1.5812 2.5336-2.4574 1.6383-0.8763 3.7338-0.8763 1.7336 0 3.1814 0.6096 1.4478 0.59055 2.4384 1.7145 1.0096 1.1049 1.3906 2.5908h-4.6672q-0.3429-0.4953-0.9525-0.762-0.59055-0.28575-1.3335-0.28575-1.3144 0-2.1146 0.85725-0.8001 0.8382-0.8001 2.2288 0 1.3716 0.78105 2.2479 0.8001 0.85725 2.1908 0.85725 0.9144 0 1.5621-0.381t0.9525-1.0478h-3.2766v-2.7813h7.8486q0.0571 0.51435 0.0571 1.0096 0 2.0574-0.89535 3.6576-0.8763 1.6002-2.5146 2.4956t-3.791 0.89535z"/>
  </g>
  <g transform="matrix(1.75 0 0 1.75 11.697 93.822)" clip-rule="evenodd" fill="#6366f1" fill-rule="evenodd">
   <path d="m11.978 17c-0.948 0.011-1.529 0.896-1.978 1.608-0.965 1.535-2.01 3.161-2.909 4.529-0.312 0.475-0.65 0.859-1.219 0.863-0.57 4e-3 -1.052-0.685-0.777-1.265 0.731-1.539 3.905-7.077 3.905-11.735 0-1.613-0.858-2-2-2h-4c-0.552 0-1-0.448-1-1s0.448-1 1-1h18c0.553 0 1 0.449 1 1s-0.447 1-1 1h-4c-1.141 0-2 0.387-2 2 0 4.658 3.175 10.196 3.906 11.735 0.275 0.58-0.207 1.269-0.777 1.265-0.569-4e-3 -0.908-0.388-1.219-0.863-0.899-1.368-1.944-2.994-2.91-4.529-0.451-0.717-1.038-1.611-2-1.608zm0.022-17c1.657 0 3 1.344 3 3s-1.343 3-3 3c-1.655 0-3-1.344-3-3s1.345-3 3-3" fill="#6366f1"/>
  </g>
 </g>
</svg>
